<svg viewBox="0 0 41 41" fill="none" xmlns="http://www.w3.org/2000/svg">
<path d="M25.8235 18.5531L25.4995 21.1547C25.4447 21.5893 25.0767 21.9162 24.6401 21.9162H20.4264V32.7935C19.9821 32.8337 19.5318 32.8542 19.0767 32.8542C18.0587 32.8542 17.0653 32.7524 16.1051 32.5586V21.9162H12.8643C12.5667 21.9162 12.324 21.6725 12.324 21.374V18.1185C12.324 17.82 12.5667 17.5762 12.8643 17.5762H16.1051V12.694C16.1051 9.69792 18.5237 7.26953 21.508 7.26953H25.2891C25.5866 7.26953 25.8294 7.51325 25.8294 7.81178V11.0673C25.8294 11.3658 25.5866 11.6095 25.2891 11.6095H22.5876C21.3945 11.6095 20.4274 12.5805 20.4274 13.7795V17.5772H24.9651C25.4858 17.5772 25.8881 18.0353 25.8245 18.554L25.8235 18.5531Z" fill="white"/>
<path d="M35.4598 0H4.66395C2.08875 0 0 2.08875 0 4.66395V35.4597C0 38.035 2.08875 40.1237 4.66395 40.1237H35.4598C38.035 40.1237 40.1237 38.035 40.1237 35.4597V4.66395C40.1237 2.08875 38.035 0 35.4598 0ZM38.2581 35.4597C38.2581 37.0023 37.0023 38.2581 35.4598 38.2581H4.66395C3.12137 38.2581 1.86558 37.0023 1.86558 35.4597V4.66395C1.86558 3.12137 3.12137 1.86558 4.66395 1.86558H35.4598C37.0023 1.86558 38.2581 3.12137 38.2581 4.66395V35.4597Z" fill="white"/>
</svg>
