<svg viewBox="0 0 41 41" fill="none" xmlns="http://www.w3.org/2000/svg">
<path d="M25.3586 9.86133H14.8063C12.0872 9.86133 9.88196 12.0666 9.88196 14.7856V25.338C9.88196 28.0571 12.0872 30.2623 14.8063 30.2623H25.3586C28.0777 30.2623 30.283 28.0571 30.283 25.338V14.7856C30.283 12.0666 28.0777 9.86133 25.3586 9.86133ZM28.5241 24.9857C28.5241 26.9276 26.9482 28.5034 25.0063 28.5034H15.1576C13.2157 28.5034 11.6399 26.9276 11.6399 24.9857V15.137C11.6399 13.1951 13.2157 11.6192 15.1576 11.6192H25.0063C26.9482 11.6192 28.5241 13.1951 28.5241 15.137V24.9857Z" fill="white"/>
<path d="M20.0819 14.7856C17.17 14.7856 14.8062 17.1494 14.8062 20.0613C14.8062 22.9733 17.17 25.337 20.0819 25.337C22.9938 25.337 25.3576 22.9733 25.3576 20.0613C25.3576 17.1494 22.9938 14.7856 20.0819 14.7856ZM20.0819 23.5791C18.1439 23.5791 16.5641 21.9994 16.5641 20.0613C16.5641 18.1233 18.1439 16.5436 20.0819 16.5436C22.0199 16.5436 23.5997 18.1233 23.5997 20.0613C23.5997 21.9994 22.0199 23.5791 20.0819 23.5791Z" fill="white"/>
<path d="M25.71 15.4897C25.1286 15.4897 24.6548 15.0159 24.6548 14.4345C24.6548 13.8531 25.1286 13.3794 25.71 13.3794C26.2914 13.3794 26.7651 13.8531 26.7651 14.4345C26.7651 15.0159 26.2914 15.4897 25.71 15.4897Z" fill="white"/>
<path d="M35.4597 0H4.66396C2.08875 0 0 2.08875 0 4.66395V35.4597C0 38.035 2.08875 40.1237 4.66396 40.1237H35.4597C38.035 40.1237 40.1237 38.035 40.1237 35.4597V4.66395C40.1237 2.08875 38.035 0 35.4597 0ZM38.2581 35.4597C38.2581 37.0023 37.0023 38.2581 35.4597 38.2581H4.66396C3.12138 38.2581 1.86559 37.0023 1.86559 35.4597V4.66395C1.86559 3.12137 3.12138 1.86558 4.66396 1.86558H35.4597C37.0023 1.86558 38.2581 3.12137 38.2581 4.66395V35.4597Z" fill="white"/>
</svg>
