<svg width="41" height="41" viewBox="0 0 41 41" fill="none" xmlns="http://www.w3.org/2000/svg">
<path d="M13.1942 15.4714C14.5775 15.4714 15.6989 14.35 15.6989 12.9667C15.6989 11.5833 14.5775 10.4619 13.1942 10.4619C11.8109 10.4619 10.6895 11.5833 10.6895 12.9667C10.6895 14.35 11.8109 15.4714 13.1942 15.4714Z" fill="#142F4C"/>
<path d="M15.095 17.1406H11.2944C11.1911 17.1406 11.1074 17.2243 11.1074 17.3276V29.4764C11.1074 29.5796 11.1911 29.6633 11.2944 29.6633H15.095C15.1983 29.6633 15.282 29.5796 15.282 29.4764V17.3276C15.282 17.2243 15.1983 17.1406 15.095 17.1406Z" fill="#142F4C"/>
<path d="M29.4745 21.7326V28.8289C29.4745 29.2879 29.0986 29.6638 28.6396 29.6638H26.1348C25.6758 29.6638 25.2999 29.2879 25.2999 28.8289V22.9845C25.2999 21.8324 24.3652 20.8977 23.2131 20.8977C22.0611 20.8977 21.1263 21.8324 21.1263 22.9845V28.8289C21.1263 29.2879 20.7505 29.6638 20.2914 29.6638H17.7867C17.3276 29.6638 16.9518 29.2879 16.9518 28.8289V17.975C16.9518 17.516 17.3276 17.1401 17.7867 17.1401H20.2914C20.7505 17.1401 21.1263 17.516 21.1263 17.975V18.5094C21.9613 17.4279 23.3433 16.7231 24.8829 16.7231C27.187 16.7231 29.4745 18.393 29.4745 21.7326Z" fill="#142F4C"/>
<path d="M35.4597 0H4.66396C2.08875 0 0 2.08874 0 4.66395V35.4597C0 38.035 2.08875 40.1237 4.66396 40.1237H35.4597C38.035 40.1237 40.1237 38.035 40.1237 35.4597V4.66395C40.1237 2.08874 38.035 0 35.4597 0ZM38.2581 35.4597C38.2581 37.0023 37.0023 38.2581 35.4597 38.2581H4.66396C3.12138 38.2581 1.86559 37.0023 1.86559 35.4597V4.66395C1.86559 3.12137 3.12138 1.86558 4.66396 1.86558H35.4597C37.0023 1.86558 38.2581 3.12137 38.2581 4.66395V35.4597Z" fill="#142F4C"/>
</svg>
