<svg viewBox="0 0 41 41" fill="none" xmlns="http://www.w3.org/2000/svg">
<path d="M13.1941 15.4714C14.5774 15.4714 15.6989 14.35 15.6989 12.9667C15.6989 11.5833 14.5774 10.4619 13.1941 10.4619C11.8108 10.4619 10.6894 11.5833 10.6894 12.9667C10.6894 14.35 11.8108 15.4714 13.1941 15.4714Z" fill="white"/>
<path d="M15.095 17.1406H11.2943C11.1911 17.1406 11.1074 17.2243 11.1074 17.3276V29.4764C11.1074 29.5796 11.1911 29.6633 11.2943 29.6633H15.095C15.1982 29.6633 15.2819 29.5796 15.2819 29.4764V17.3276C15.2819 17.2243 15.1982 17.1406 15.095 17.1406Z" fill="white"/>
<path d="M29.4744 21.7326V28.8289C29.4744 29.2879 29.0985 29.6638 28.6395 29.6638H26.1348C25.6757 29.6638 25.2998 29.2879 25.2998 28.8289V22.9845C25.2998 21.8324 24.3651 20.8977 23.2131 20.8977C22.061 20.8977 21.1263 21.8324 21.1263 22.9845V28.8289C21.1263 29.2879 20.7504 29.6638 20.2914 29.6638H17.7866C17.3276 29.6638 16.9517 29.2879 16.9517 28.8289V17.975C16.9517 17.516 17.3276 17.1401 17.7866 17.1401H20.2914C20.7504 17.1401 21.1263 17.516 21.1263 17.975V18.5094C21.9612 17.4279 23.3432 16.7231 24.8829 16.7231C27.187 16.7231 29.4744 18.393 29.4744 21.7326Z" fill="white"/>
<path d="M35.4597 0H4.66396C2.08875 0 0 2.08874 0 4.66395V35.4597C0 38.035 2.08875 40.1237 4.66396 40.1237H35.4597C38.035 40.1237 40.1237 38.035 40.1237 35.4597V4.66395C40.1237 2.08874 38.035 0 35.4597 0ZM38.2581 35.4597C38.2581 37.0023 37.0023 38.2581 35.4597 38.2581H4.66396C3.12138 38.2581 1.86559 37.0023 1.86559 35.4597V4.66395C1.86559 3.12137 3.12138 1.86558 4.66396 1.86558H35.4597C37.0023 1.86558 38.2581 3.12137 38.2581 4.66395V35.4597Z" fill="white"/>
</svg>
