<svg viewBox="0 0 41 41" fill="none" xmlns="http://www.w3.org/2000/svg">
<path d="M23.9168 25.0716V15.4363C23.9168 15.4363 25.0033 17.2471 28.9302 17.3577C29.1397 17.3636 29.3129 17.1913 29.3129 16.9818V14.2588C29.3129 14.0562 29.1514 13.8957 28.9488 13.884C25.9028 13.7117 24.4561 11.3753 24.3142 9.23272C24.3015 9.03403 24.1273 8.8833 23.9286 8.8833H20.8229C20.6163 8.8833 20.448 9.05067 20.448 9.25817V24.5753C20.448 26.2393 19.1765 27.6869 17.5145 27.7652C15.6147 27.8553 14.0702 26.2246 14.3051 24.2973C14.4715 22.9358 15.5638 21.821 16.9224 21.6321C17.1925 21.5949 17.4558 21.592 17.7113 21.6203C17.9374 21.6458 18.1361 21.4774 18.1361 21.2504V18.5205C18.1361 18.3267 17.9883 18.1583 17.7945 18.1466C17.4049 18.1211 17.0056 18.13 16.6003 18.176C13.6042 18.5156 11.1866 20.9401 10.8548 23.9371C10.4173 27.8905 13.5005 31.237 17.3658 31.237C20.9844 31.237 23.9178 28.3035 23.9178 24.6849" fill="white"/>
<path d="M35.4597 0H4.66395C2.08874 0 0 2.08874 0 4.66394V35.4597C0 38.0349 2.08874 40.1237 4.66395 40.1237H35.4597C38.0349 40.1237 40.1237 38.0349 40.1237 35.4597V4.66394C40.1237 2.08874 38.0349 0 35.4597 0ZM38.2581 35.4597C38.2581 37.0023 37.0023 38.2581 35.4597 38.2581H4.66395C3.12137 38.2581 1.86558 37.0023 1.86558 35.4597V4.66394C1.86558 3.12136 3.12137 1.86557 4.66395 1.86557H35.4597C37.0023 1.86557 38.2581 3.12136 38.2581 4.66394V35.4597Z" fill="white"/>
</svg>
