<svg viewBox="0 0 41 41" fill="none" xmlns="http://www.w3.org/2000/svg">
<path d="M35.4597 0H4.66395C2.08874 0 0 2.08875 0 4.66395V35.4597C0 38.035 2.08874 40.1237 4.66395 40.1237H35.4597C38.0349 40.1237 40.1237 38.035 40.1237 35.4597V4.66395C40.1237 2.08875 38.0349 0 35.4597 0ZM38.2581 35.4597C38.2581 37.0023 37.0023 38.2581 35.4597 38.2581H4.66395C3.12137 38.2581 1.86558 37.0023 1.86558 35.4597V4.66395C1.86558 3.12137 3.12137 1.86558 4.66395 1.86558H35.4597C37.0023 1.86558 38.2581 3.12137 38.2581 4.66395V35.4597Z" fill="white"/>
<path d="M22.8685 18.275L30.7351 9.86133H27.7478L21.5736 16.4662L16.845 9.86133H8.67407L16.9449 21.415L8.67407 30.2623H11.6614L18.2408 23.2248L23.2787 30.2623H31.4496L22.8685 18.276V18.275ZM12.8839 12.0254H15.7322L27.2389 28.0982H24.3906L12.8839 12.0254Z" fill="white"/>
</svg>
