<svg width="41" height="41" viewBox="0 0 41 41" fill="none" xmlns="http://www.w3.org/2000/svg">
<path d="M28.4428 11.8218H11.6819C10.0258 11.8218 8.68286 13.1647 8.68286 14.8198V25.3027C8.68286 26.9588 10.0258 28.3008 11.6819 28.3008H28.4428C30.0979 28.3008 31.4408 26.9588 31.4408 25.3027V14.8198C31.4408 13.1647 30.0979 11.8218 28.4428 11.8218ZM22.754 20.7856L18.093 23.1151C17.5547 23.3843 16.9223 22.9937 16.9223 22.3928V17.7337C16.9223 17.1327 17.5556 16.7422 18.093 17.0104L22.754 19.3399C23.3491 19.6374 23.3491 20.488 22.754 20.7856Z" fill="#142F4C"/>
<path d="M35.4597 0H4.66396C2.08875 0 0 2.08875 0 4.66395V35.4597C0 38.035 2.08875 40.1237 4.66396 40.1237H35.4597C38.035 40.1237 40.1237 38.035 40.1237 35.4597V4.66395C40.1237 2.08875 38.035 0 35.4597 0ZM38.2581 35.4597C38.2581 37.0023 37.0023 38.2581 35.4597 38.2581H4.66396C3.12138 38.2581 1.86559 37.0023 1.86559 35.4597V4.66395C1.86559 3.12137 3.12138 1.86558 4.66396 1.86558H35.4597C37.0023 1.86558 38.2581 3.12137 38.2581 4.66395V35.4597Z" fill="#142F4C"/>
</svg>
