<?xml version="1.0" encoding="UTF-8"?>
<svg id="Vrstva_1" xmlns="http://www.w3.org/2000/svg" version="1.1" viewBox="0 0 288 40">
  <!-- Generator: Adobe Illustrator 30.1.0, SVG Export Plug-In . SVG Version: 2.1.1 Build 136)  -->
  <defs>
    <style>
      .st0 {
        fill: #fff8ff;
      }

      .st1 {
        fill: #ef8625;
      }

      .st2 {
        fill: none;
        stroke: #ef8625;
        stroke-linecap: round;
        stroke-width: 2px;
      }
    </style>
  </defs>
  <path class="st1" d="M14.1,2.4C10.9-.8,5.7-.8,2.4,2.4h0C-.8,5.7-.8,10.9,2.4,14.1l5.9,5.9,11.7-11.7-5.9-5.9Z"/>
  <path class="st1" d="M37.6,2.4h0c-3.2-3.2-8.5-3.2-11.7,0l-5.9,5.9,11.7,11.7,5.9-5.9c3.2-3.2,3.2-8.5,0-11.7"/>
  <path class="st1" d="M8.3,20l-5.9,5.9c-3.2,3.2-3.2,8.5,0,11.7,3.2,3.2,8.5,3.2,11.7,0l5.9-5.9h-11.7v-11.7Z"/>
  <path class="st1" d="M37.6,25.9l-5.9-5.9v11.7h-11.7l5.9,5.9c3.2,3.2,8.5,3.2,11.7,0,3.2-3.2,3.2-8.5,0-11.7"/>
  <path class="st0" d="M59.1,25.5c1.1,0,2-.4,2.8-1.1.7-.7,1.1-1.7,1.1-2.9s-.4-2.2-1.1-2.9c-.7-.7-1.6-1.1-2.8-1.1s-2,.4-2.8,1.1c-.7.7-1.1,1.7-1.1,2.9s.4,2.2,1.1,2.9c.7.7,1.7,1.1,2.8,1.1ZM65.5,15.5c1.5,1.7,2.3,3.7,2.3,6.1s-.7,4.4-2.3,6.1c-1.5,1.7-3.3,2.5-5.5,2.5s-3.7-.6-4.8-2v1.5h-4.9V7h4.9v8c1.1-1.3,2.8-2,4.8-2s4,.8,5.5,2.5Z"/>
  <path class="st0" d="M70.6,13.5h4.9v16.2h-4.9V13.5ZM70.9,11.2c-1.1-1.2-1.1-3,0-4.1,1.2-1.2,3-1.2,4.1,0,1.2,1.1,1.2,3,0,4.1-1.1,1.1-3,1.1-4.1,0Z"/>
  <path class="st0" d="M86.9,25.5c1.1,0,2.1-.4,2.8-1.1.7-.7,1.1-1.7,1.1-2.9s-.4-2.2-1.1-2.9c-.7-.7-1.7-1.1-2.8-1.1s-2.1.4-2.8,1.1c-.7.7-1.1,1.7-1.1,2.9s.4,2.2,1.1,2.9c.7.7,1.7,1.1,2.8,1.1ZM90.8,7h4.9v22.7h-4.9v-1.5c-1.1,1.3-2.8,2-4.8,2s-4-.8-5.5-2.5c-1.5-1.7-2.3-3.7-2.3-6.1s.7-4.4,2.3-6.1c1.5-1.7,3.3-2.5,5.5-2.5s3.7.7,4.8,2V7h0Z"/>
  <path class="st0" d="M104.1,7h-4.9v22.7h4.9V7Z"/>
  <path class="st0" d="M106.7,13.5h4.9v16.2h-4.9V13.5ZM107,11.2c-1.1-1.2-1.1-3,0-4.1,1.2-1.2,3-1.2,4.1,0,1.2,1.1,1.2,3,0,4.1-1.1,1.1-3,1.1-4.1,0Z"/>
  <line class="st2" x1="123" y1="2.5" x2="123" y2="37.5"/>
  <path class="st0" d="M147.2,20.2c0,3.5,0,5.6-1.9,7.5-1.2,1.2-2.8,2-4.9,2s-3.7-.7-5-2c-1.8-1.8-1.9-3.9-1.9-7.5s0-5.6,1.9-7.5c1.2-1.2,2.8-1.9,5-1.9s3.7.7,4.9,1.9c1.8,1.8,1.9,3.9,1.9,7.5ZM143.6,20.2c0-3.5-.2-4.4-.9-5.2-.5-.6-1.3-1-2.3-1s-1.8.4-2.3,1c-.7.8-.9,1.7-.9,5.2s.2,4.4.9,5.2c.5.6,1.4,1,2.3,1s1.8-.4,2.3-1c.7-.8.9-1.6.9-5.2ZM161.9,29.5h-3.4v-8.2c0-1.8-1.2-2.5-2.2-2.5s-2.3.6-2.3,2.5v8.2h-3.4v-13.5h3.3v1.2c.9-.9,2.1-1.4,3.4-1.4s2.4.4,3.2,1.2c1.1,1.1,1.4,2.4,1.4,3.8v8.7ZM176.4,29.5h-3.3v-1.3c-.9,1-1.9,1.4-3.4,1.4s-2.5-.4-3.3-1.2c-1.3-1.3-1.4-3.4-1.4-5.7s.1-4.4,1.4-5.7c.8-.8,1.9-1.2,3.3-1.2s2.4.4,3.3,1.4v-6.2h3.4v18.5ZM173,22.7c0-2.2-.3-3.9-2.3-3.9s-2.3,1.7-2.3,3.9.3,3.9,2.3,3.9,2.3-1.7,2.3-3.9ZM190.1,17.1l-2.5,2.6c-.5-.5-1-.8-1.8-.8s-2.2.8-2.2,2.5v8.2h-3.4v-13.5h3.3v1.3c.7-.8,1.9-1.5,3.4-1.5s2.3.3,3.2,1.3ZM189,9.4l-3.4,4.4h-2.7l-3.4-4.4h2.6l2.2,2.3,2.2-2.3h2.6ZM202.3,23.8h-8.5c0,1.8,1,3,3,3s2.2-.4,3.1-1.3l2.1,2c-1.4,1.4-2.7,2.1-5.1,2.1s-6.3-1.5-6.3-6.9,2.4-6.9,5.9-6.9,5.9,2.7,5.9,6.6v1.4ZM199,21.5c0-.6,0-1-.3-1.5-.4-.8-1.1-1.4-2.3-1.4s-1.9.6-2.3,1.4c-.2.5-.3.9-.3,1.5h5.1ZM208.8,30.7c0,1.9-1.2,3.9-4,3.9h-1.9v-2.9h1.3c.9,0,1.2-.4,1.2-1.2v-14.1h3.4v14.4ZM208.8,13.6h-3.5v-2.8h3.5v2.8ZM235.7,29.5h-3.6v-10.8l-3.5,7h-2.4l-3.6-7v10.8h-3.6V11h3.6l4.8,10,4.8-10h3.6v18.5ZM250,29.5h-3.3v-1.2c-.9.9-1.8,1.3-3.3,1.3s-2.7-.4-3.5-1.2c-.7-.8-1.1-1.8-1.1-3,0-2.2,1.5-3.9,4.7-3.9h3.1v-.7c0-1.5-.7-2.1-2.5-2.1s-1.9.3-2.6,1.2l-2.1-2.1c1.3-1.5,2.6-1.9,4.9-1.9,3.8,0,5.8,1.6,5.8,4.8v8.9ZM246.6,24.5v-.7h-2.6c-1.4,0-2,.5-2,1.6s.6,1.5,2.1,1.5,1.4-.1,2-.6c.4-.3.5-.9.5-1.7ZM263.8,25.2c0,3-2.5,4.4-5.7,4.4s-4-.2-5.8-2l2.2-2.2c1.1,1.1,2.6,1.3,3.6,1.3s2.4-.4,2.4-1.4-.3-1.1-1.4-1.2l-2.2-.2c-2.4-.2-3.9-1.3-3.9-3.8s2.5-4.3,5.2-4.3,3.9.4,5.2,1.6l-2.1,2.1c-.8-.7-1.9-.9-3.1-.9s-1.9.6-1.9,1.3.4,1.1,1.4,1.2l2.1.2c2.7.3,4,1.7,4,4ZM263,9.4l-3.4,4.4h-2.7l-3.4-4.4h2.6l2.2,2.3,2.2-2.3h2.6ZM270,29.5h-3.4v-13.2h3.4v13.2ZM271.8,9.4l-3,4.4h-2.3l1.7-4.4h3.6ZM285,29.5h-3.4v-8.2c0-1.8-1.2-2.5-2.2-2.5s-2.3.6-2.3,2.5v8.2h-3.4v-13.5h3.3v1.2c.9-.9,2.1-1.4,3.4-1.4s2.4.4,3.2,1.2c1.1,1.1,1.4,2.4,1.4,3.8v8.7Z"/>
</svg>